<svg id="Layer_3" data-name="Layer 3" xmlns="http://www.w3.org/2000/svg" viewBox="0 0 317.09 316.87"><ellipse cx="158.55" cy="158.67" rx="141.08" ry="140.64" style="fill:#fff"/><path d="M163.28,207.11a46,46,0,0,1-15.49-2.46A31.16,31.16,0,0,1,136,197.29a33.07,33.07,0,0,1-7.56-12.15,49,49,0,0,1-2.64-16.82V125.26a7.68,7.68,0,0,1,7.68-7.69h0a7.68,7.68,0,0,1,7.68,7.69v42.43q0,12.34,5.95,18.77t16.47,6.42q10.38,0,16.34-6.17t5.95-18.39V125.26a7.68,7.68,0,0,1,7.68-7.69h0a7.68,7.68,0,0,1,7.68,7.69v42.31a50.14,50.14,0,0,1-2.71,17.25,33.71,33.71,0,0,1-7.61,12.4A30.75,30.75,0,0,1,179,204.65,46.93,46.93,0,0,1,163.28,207.11Z" transform="translate(-4.92 -4.02)" style="fill:#009fe3"/><path d="M49.69,117.57h0a7.68,7.68,0,0,1,7.68,7.69v29H99.68v-29a7.69,7.69,0,0,1,7.69-7.69h0a7.68,7.68,0,0,1,7.68,7.69V198a7.68,7.68,0,0,1-7.68,7.68h0A7.68,7.68,0,0,1,99.68,198V168.58H57.37V198a7.68,7.68,0,0,1-7.68,7.68h0A7.68,7.68,0,0,1,42,198V125.26A7.68,7.68,0,0,1,49.69,117.57Z" transform="translate(-4.92 -4.02)" style="fill:#0e4067"/><path d="M280.1,155.86a17.72,17.72,0,0,0,3.57-5.92,23.06,23.06,0,0,0,1.25-7.94v-.25a22.59,22.59,0,0,0-2.32-10.45,20.81,20.81,0,0,0-6.6-7.56,31.57,31.57,0,0,0-10.31-4.59,52.8,52.8,0,0,0-13.33-1.58H219.25a7.62,7.62,0,0,0-7.62,7.62V198a7.68,7.68,0,0,0,7.68,7.68h33.05a52.82,52.82,0,0,0,13.33-1.57,31.37,31.37,0,0,0,10.31-4.6,20.7,20.7,0,0,0,6.6-7.55,22.59,22.59,0,0,0,2.32-10.45v-.26a23,23,0,0,0-1.25-7.93,17.62,17.62,0,0,0-3.57-5.92,22.7,22.7,0,0,0-5.51-4.34c-.89-.51-1.84-1-2.82-1.46,1-.45,1.93-.93,2.82-1.44A23,23,0,0,0,280.1,155.86ZM227,131.3h25.62q7.9,0,12.43,3t4.52,9.07v.25a10,10,0,0,1-4.46,8.75q-4.46,3.09-13.62,3.09H227Zm42.57,48.61q0,6-4.52,9.07t-12.43,3H227V167.82h24.49q9.16,0,13.62,3.08a10,10,0,0,1,4.46,8.76Z" transform="translate(-4.92 -4.02)" style="fill:#0e4067"/><path d="M163.47,320.89C76,320.89,4.92,249.77,4.92,162.34A158.56,158.56,0,0,1,127.07,8a8.73,8.73,0,0,1,4,17,141.8,141.8,0,0,0-77.7,49.11,139.45,139.45,0,0,0-31,88.19c0,77.8,63.29,141.09,141.09,141.09s141.08-63.29,141.08-141.09a139.45,139.45,0,0,0-31-88.19A141.76,141.76,0,0,0,195.87,25a8.73,8.73,0,0,1,4-17A158.56,158.56,0,0,1,322,162.34C322,249.77,250.89,320.89,163.47,320.89Z" transform="translate(-4.92 -4.02)" style="fill:#009fe3"/><circle cx="158.55" cy="9.02" r="9.02" style="fill:#009fe3"/><path d="M93,254c.16,4.92,3.49,9.52,8.35,9.52,6,0,7.62-4.33,9.41-4.33,1.06,0,1.8.37,1.8,1.85,0,1.69-4.39,5.65-10.94,5.65-9,0-12.74-7.29-12.74-14.38S93.07,237.9,101,237.9s12,6.66,12,13.74c0,1-.31,2.32-2.59,2.32Zm15.86-3.17c-.16-4.7-2.8-9.72-7.93-9.72s-7.77,5-7.93,9.72Z" transform="translate(-4.92 -4.02)" style="fill:#0e4067"/><path d="M121.58,264.22c0,1.59-.69,2.43-1.9,2.43s-1.91-.84-1.91-2.43V240.33c0-1.59.69-2.43,1.91-2.43s1.9.84,1.9,2.43v1.37h.1a8.56,8.56,0,0,1,7.35-3.8c5,0,10.1,3.32,10.1,10v16.28c0,1.59-.69,2.43-1.91,2.43s-1.9-.84-1.9-2.43V247.84c0-3.92-2.64-6.46-6.87-6.46-3.54,0-6.87,2.54-6.87,7.35Z" transform="translate(-4.92 -4.02)" style="fill:#0e4067"/><path d="M148.82,254c.16,4.92,3.49,9.52,8.35,9.52,6,0,7.61-4.33,9.41-4.33,1.06,0,1.8.37,1.8,1.85,0,1.69-4.39,5.65-10.94,5.65-9,0-12.74-7.29-12.74-14.38s4.17-14.37,12.1-14.37,12,6.66,12,13.74c0,1-.31,2.32-2.59,2.32Zm15.86-3.17c-.16-4.7-2.81-9.72-7.93-9.72s-7.77,5-7.93,9.72Z" transform="translate(-4.92 -4.02)" style="fill:#0e4067"/><path d="M177.38,264.22c0,1.59-.69,2.43-1.9,2.43s-1.91-.84-1.91-2.43V240.33c0-1.59.69-2.43,1.91-2.43s1.9.84,1.9,2.43V243h.1c1.38-3.12,3.81-5.07,6.19-5.07,1.8,0,2.54,1,2.54,2.06s-.74,1.63-2.59,2.06c-2.12.47-6.24,2.27-6.24,8.51Z" transform="translate(-4.92 -4.02)" style="fill:#0e4067"/><path d="M208.84,240.33c0-1.59.69-2.43,1.9-2.43s1.91.84,1.91,2.43V265c0,8.72-6.08,12.74-12.27,12.74-5.6,0-10.78-3.17-10.78-5.07a1.77,1.77,0,0,1,1.9-2c1.53,0,4.07,3.54,8.51,3.54s8.83-2.59,8.83-8.93v-3h-.11a8.57,8.57,0,0,1-7.82,4.28c-8.09,0-12.1-6.45-12.1-14.38,0-7.08,3.85-14.37,12-14.37a9.93,9.93,0,0,1,7.92,4.12h.11Zm-7.93,23.15c5.13,0,8-4.6,8-8.51v-5.39c0-4-2.85-8.51-8-8.51-5.92,0-8,6.08-8,11.2S195,263.48,200.91,263.48Z" transform="translate(-4.92 -4.02)" style="fill:#0e4067"/><path d="M217,240.75a3.11,3.11,0,0,1-.22-1.11,1.72,1.72,0,0,1,1.75-1.74c1.06,0,1.64.63,2,1.74l6.82,20.41h.1l6.82-20.41c.37-1.11,1-1.74,2-1.74a1.72,1.72,0,0,1,1.74,1.74,3.07,3.07,0,0,1-.21,1.11l-12.15,35.1c-.43,1.27-1,1.9-2.06,1.9a1.63,1.63,0,0,1-1.75-1.58,4.25,4.25,0,0,1,.32-1.54l3.43-9Z" transform="translate(-4.92 -4.02)" style="fill:#0e4067"/></svg>