<svg width="165" height="78" aria-label="Look After My Bills" fill="rgba(50, 50, 65, 1)" viewBox="0 0 170 80" xmlns="http://www.w3.org/2000/svg"><path d="M34.89.083c-5.2.665-8.441 5.058-7.81 9.992.631 4.934 4.875 8.367 10.075 7.701 5.2-.666 8.442-5.058 7.81-9.992C44.385 3.262 40.774 0 36.171 0c-.42 0-.848.027-1.281.083zM31.017 9.57c-.417-3.258 1.594-5.491 4.34-5.843 2.745-.352 5.254 1.303 5.67 4.56.418 3.257-1.593 5.49-4.339 5.843a5.72 5.72 0 0 1-.72.046c-2.453 0-4.571-1.638-4.951-4.606zm94.441-8.549l-2.513 8.372-5.311-6.924-4.714.872 3.119 16.86 3.655-.676-2.196-11.874 5.14 6.673 2.115-.391 2.412-8.07 2.196 11.874 3.656-.677-3.118-16.86-4.44.821zm16.458 12.764l-3.279 5.634 3.43 1.997 3.28-5.634 10.26-6.33-3.832-2.232-5.12 3.342s-.578.458-1.064.854c.105-.619.217-1.348.217-1.348l.377-6.103-3.854-2.244-.415 12.064zm-94.91 4.01l3.337 2.151 3.382-5.253 2.14-.516-.292 9.14 3.79 2.442.37-12.472 8.754-2.053-4.16-2.681-6.46 1.521s-.704.188-1.421.397l3.185-4.944-3.337-2.15-9.288 14.418zM9.43 13.81c-3.421 3.973-2.895 9.406.873 12.653 3.769 3.246 9.22 2.961 12.641-1.012 3.421-3.973 2.895-9.407-.874-12.653-1.715-1.477-3.778-2.224-5.84-2.223-2.469 0-4.936 1.07-6.8 3.235zm3.464 9.646c-2.488-2.144-2.486-5.15-.68-7.248 1.807-2.098 4.779-2.545 7.266-.403 2.487 2.143 2.486 5.149.68 7.248-.994 1.153-2.339 1.807-3.762 1.807-1.166 0-2.384-.44-3.504-1.404zm74.865.646l-5.118 5.444 12.493 11.75 2.719-2.892-4.927-4.632 1.46-1.554 7.545 1.848 2.92-3.106-7.929-1.94c.832-2.28.82-4.342-1.09-6.137-.982-.925-2.07-1.383-3.208-1.383-1.571 0-3.24.874-4.865 2.602zm-.044 4.768l2.668-2.838c1.04-1.107 2.083-1.035 2.921-.246.84.789.975 1.825-.065 2.932l-2.668 2.838-2.856-2.686zm75.916 3.385c-2.865.083-4.383 1.844-5.056 5.638-.546 3.104-1.228 4.105-2.134 4.131-.979.03-1.647-1.03-1.69-2.475-.056-1.935 1.108-3.195 2.903-3.86l-1.85-2.912c-2.953 1.288-4.385 3.413-4.287 6.793.11 3.723 2.115 6.115 5.102 6.028 2.791-.082 4.425-2.066 4.985-5.539.415-2.585 1.088-3.88 2.41-3.918 1.004-.03 1.792.952 1.837 2.495.07 2.4-1.243 3.59-3.576 4.271l1.714 3.309c3.183-.95 5.47-3.224 5.34-7.681-.121-4.108-2.636-6.283-5.528-6.283-.057 0-.114.001-.17.003zM13.43 33.693l.045 8.6L0 42.366l.021 3.97 17.15-.09-.066-12.571-3.675.019zM68.226 45.02l12.559 11.685 8.578-9.224-2.548-2.37-5.874 6.317-2.709-2.521 5.357-5.76-2.475-2.304-5.358 5.76-2.278-2.12 5.824-6.262-2.547-2.37-8.529 9.17zM52.927 59.364L55.2 62l3.84-3.312 8.927 10.355 3.006-2.592-8.927-10.356 3.841-3.312-2.272-2.635-10.687 9.216zm107.612-1.149l-12.024-6.083-1.79 3.542 15.3 7.742L167.7 52.2l-3.278-1.659-3.882 7.674zm-57.036 13.439l6.62 3.724c2.925 1.646 6.317 1.361 7.902-1.458 1.141-2.03.485-3.86-.496-5.115 1.495-.059 2.809-.445 3.697-2.024 1.297-2.308.165-4.743-2.91-6.473l-6.406-3.604-8.407 14.95zm11.578-5.744l-2.883-1.622 1.658-2.948 2.883 1.622c1.174.662 1.524 1.59 1.02 2.486-.308.546-.798.844-1.4.844-.386 0-.818-.123-1.278-.382zm-3.456 6.546l-3.053-1.718 2.04-3.63 3.055 1.717c1.516.853 1.757 1.973 1.144 3.062-.375.668-.925 1.046-1.64 1.046-.45 0-.967-.151-1.546-.477zM12.8 70.544l3.727 2.165 3.414-2.805 5.168 3.002-.745 4.356 3.728 2.166 2.575-18.337-3.22-1.87-14.647 11.323zm13.846-6.236c-.241 1.05-.406 2.116-.406 2.116l-.514 2.931-3.008-1.747 2.293-1.899s.843-.672 1.635-1.4zm110.275-2.178l7.163 15.585 11.42-5.251-1.536-3.34-7.812 3.593-5.629-12.245-3.606 1.658zm-100.761.805L37.913 80l3.948-.406-.683-6.655 8.262-.85-.345-3.363-8.262.849-.368-3.583 8.968-.922-.354-3.461-12.918 1.326zm90.845 16.924l3.97.005.017-17.152-3.969-.004-.018 17.151z"></path></svg>