<svg id="Layer_1" data-name="Layer 1" xmlns="http://www.w3.org/2000/svg" viewBox="0 0 715.53 238.94"><defs><style>.cls-1{fill:#041a72;}.cls-2{fill:#1d9d00;}</style></defs><path class="cls-1" d="M10.26,151,20,130.07c9,5.8,22.62,9.72,35,9.72,13.46,0,18.51-3.55,18.51-9.16,0-16.45-60.75.38-60.75-39.81,0-19.06,17.2-32.52,46.54-32.52,13.83,0,29.16,3.18,38.69,8.78L88.2,87.83a57.7,57.7,0,0,0-29-7.48c-13.08,0-18.69,4.12-18.69,9.35,0,17.2,60.75.56,60.75,40.19,0,18.69-17.38,32-47.48,32C36.8,161.85,19.61,157.17,10.26,151Z"/><path class="cls-1" d="M217.18,59.79,171.76,166.52c-9.72,24.3-23.55,31.59-41.68,31.59-10.28,0-21.5-3.37-28-9.16l10.65-20.75a25.85,25.85,0,0,0,16.45,6.36c8,0,12.53-3.55,16.45-12.53l.37-.93L102.42,59.79h30.09L160.73,128l28.41-68.22Z"/><path class="cls-1" d="M399.05,102.78v57.57H369.89V107.27c0-16.26-7.29-23.74-19.07-23.74-13.08,0-22.24,8.41-22.24,26.36v50.46H299.42V107.27c0-16.26-6.91-23.74-19.06-23.74-12.9,0-22.06,8.41-22.06,26.36v50.46H229.14V59.79H257V71.38c7.47-8.6,18.69-13.08,31.58-13.08,14,0,26,5.42,33.09,16.45,8-10.28,21.12-16.45,36.26-16.45C381.85,58.3,399.05,72.13,399.05,102.78Z"/><path class="cls-1" d="M534.76,110.07c0,31.59-21.87,51.78-50.1,51.78-13.46,0-24.3-4.3-31.59-13.09v11.59H425.23V21.66h29.15V70.45c7.48-8.23,17.76-12.15,30.28-12.15C512.89,58.3,534.76,78.48,534.76,110.07Zm-29.54,0c0-17.38-11-27.85-25.6-27.85S454,92.69,454,110.07s11,27.85,25.61,27.85S505.22,127.46,505.22,110.07Z"/><path class="cls-2" d="M573.81,160.41H548.39V53.12a25.42,25.42,0,0,1,25.42,25.42Z"/><path class="cls-2" d="M681.85,66.39q-17.21-16.64-40.38-16.63a53.23,53.23,0,0,0-17.35,2.86A36.22,36.22,0,0,1,604.19,54s-8-1.23-13-5.37c-5.9-4.83-9.06-12.93-10.48-16.87L578,24.23c-1.29-2.83-2.17-5.54-3.86-7.86a17.18,17.18,0,0,0-1.68-2,16.1,16.1,0,0,0-22.68,0,15.56,15.56,0,0,0-4.64,11.4,15.52,15.52,0,0,0,4.64,11.4,15.3,15.3,0,0,0,6.48,3.9l-.13,0,1.69.42.1,0s9.93,2.38,15.91,7.13c7.77,6.18,12.09,15.56,12.34,20.88l.42,9a91.54,91.54,0,0,1-1.18,19.63,51,51,0,0,0-.74,8.56q0,23,16.63,40.18,17.21,16.65,40.19,16.64,23.17,0,40.38-16.64,16.64-17.19,16.64-40.18Q698.49,83.6,681.85,66.39ZM663.68,129a31.4,31.4,0,0,1-53.61-22.31A31.5,31.5,0,1,1,663.68,129Z"/><path class="cls-1" d="M452.38,220.44v3.24h-25V188.3h24.26v3.24H431.11v12.58H449.4v3.18H431.11v13.14Z"/><path class="cls-1" d="M453.88,225.18h-28V186.8h27.26V193H432.61v9.58H450.9v6.19H432.61v10.13h21.27Zm-25-3h22v-.24H429.61V205.81H447.9v-.19H429.61V190h20.52v-.24H428.87Z"/><path class="cls-1" d="M502.76,188.3v35.38h-3.08L476.94,195v28.71H473.2V188.3h3.08L499.08,217V188.3Z"/><path class="cls-1" d="M504.26,225.18H499l-20.52-25.9v25.9H471.7V186.8H477l20.57,25.91V186.8h6.68Zm-3.85-3h.85V189.8h-.68v31.51l-25-31.51h-.86v32.38h.74V190.66Z"/><path class="cls-1" d="M551.32,220.44v3.24h-25V188.3h24.25v3.24H530.05v12.58h18.29v3.18H530.05v13.14Z"/><path class="cls-1" d="M552.82,225.18h-28V186.8h27.25V193H531.55v9.58h18.29v6.19H531.55v10.13h21.27Zm-25-3h22v-.24H528.55V205.81h18.29v-.19H528.55V190h20.51v-.24H527.81Z"/><path class="cls-1" d="M596.29,223.68l-8.08-11.37a25.46,25.46,0,0,1-2.83.15h-9.5v11.22h-3.74V188.3h13.24c9,0,14.45,4.55,14.45,12.13a11,11,0,0,1-8.08,11.12l8.64,12.13Zm-.2-23.25c0-5.66-3.74-8.89-10.81-8.89h-9.4v17.73h9.4C592.35,209.27,596.09,206,596.09,200.43Z"/><path class="cls-1" d="M603.3,225.18h-7.78l-8-11.3c-.68.05-1.38.08-2.11.08h-8v11.22h-6.74V186.8h14.74c9.84,0,16,5.22,16,13.63a12.42,12.42,0,0,1-7.25,11.81Zm-6.23-3h.41l-8.14-11.43,1.94-.63a9.45,9.45,0,0,0,7.05-9.69c0-6.75-4.72-10.63-13-10.63H573.64v32.38h.74V211h11a25,25,0,0,0,2.66-.14l.88-.1Zm-11.79-11.41h-10.9V190h10.9c7.82,0,12.31,3.79,12.31,10.39S593,210.77,585.28,210.77Zm-7.9-3h7.9c4.25,0,9.31-1.27,9.31-7.34,0-4.91-3.13-7.39-9.31-7.39h-7.9Z"/><path class="cls-1" d="M645.61,206h3.59v13.49a19.5,19.5,0,0,1-13,4.5c-10.76,0-18.65-7.63-18.65-18s7.89-18,18.7-18c5.36,0,10,1.72,13.14,5.1l-2.32,2.38a14.44,14.44,0,0,0-10.67-4.15c-8.74,0-15.16,6.22-15.16,14.66s6.42,14.66,15.11,14.66a15.32,15.32,0,0,0,9.25-2.73Z"/><path class="cls-1" d="M636.21,225.48c-11.48,0-20.15-8.38-20.15-19.49,0-11.3,8.5-19.49,20.2-19.49,5.85,0,10.9,2,14.24,5.58l1,1-4.37,4.48L646,196.55a12.89,12.89,0,0,0-9.62-3.72c-7.91,0-13.66,5.54-13.66,13.16s5.73,13.16,13.61,13.16a14.09,14.09,0,0,0,7.75-2V204.49h6.59v15.67l-.5.44A20.83,20.83,0,0,1,636.21,225.48Zm0-36c-10,0-17.2,6.93-17.2,16.49s7.22,16.49,17.15,16.49a18.38,18.38,0,0,0,11.49-3.69v-11.3h-.59v11.2l-.62.44a16.68,16.68,0,0,1-10.13,3c-9.47,0-16.61-7-16.61-16.16s7.16-16.16,16.66-16.16A16,16,0,0,1,647,193.4l.27-.27C644.52,190.75,640.75,189.5,636.26,189.5Z"/><path class="cls-1" d="M683.91,211.45v12.23h-3.69V211.45L666.07,188.3h4l12.12,19.86,12.13-19.86h3.74Z"/><path class="cls-1" d="M685.41,225.18h-6.69V211.87L663.4,186.8h7.51l11.28,18.48,11.29-18.48h7.26l-15.33,25.07Zm-3.69-3h.69V211l13-21.23h-.23l-13,21.24-13-21.24h-.47l13,21.23Z"/></svg>